<svg aria-hidden="true" style="position: absolute; width: 0; height: 0; overflow: hidden;" version="1.1" xmlns="http://www.w3.org/2000/svg" xmlns:xlink="http://www.w3.org/1999/xlink">
<defs>
<symbol id="icon-arrow-back" viewBox="0 0 32 32">
<path d="M5.194 16.922c-0.182-0.18-0.284-0.424-0.284-0.679s0.102-0.499 0.284-0.679l7.772-7.682c0.089-0.094 0.196-0.17 0.315-0.223s0.248-0.081 0.378-0.083c0.13-0.002 0.26 0.021 0.381 0.070s0.231 0.12 0.323 0.211c0.092 0.091 0.165 0.2 0.214 0.319s0.073 0.248 0.071 0.377c-0.002 0.129-0.031 0.256-0.084 0.374s-0.13 0.224-0.225 0.312l-6.114 6.044h18.38c0.258 0 0.505 0.101 0.687 0.281s0.285 0.424 0.285 0.679-0.102 0.499-0.285 0.679c-0.182 0.18-0.429 0.281-0.687 0.281h-18.38l6.114 6.044c0.095 0.088 0.172 0.194 0.225 0.312s0.082 0.245 0.084 0.374c0.002 0.129-0.022 0.257-0.071 0.377s-0.122 0.228-0.214 0.319c-0.092 0.091-0.202 0.163-0.323 0.211s-0.251 0.072-0.381 0.070-0.259-0.031-0.378-0.083c-0.119-0.053-0.226-0.128-0.315-0.223l-7.772-7.682z"></path>
</symbol>
<symbol id="icon-arrow-down" viewBox="0 0 32 32">
<path fill="#ff008c" style="fill: var(--color1, #ff008c)" d="M9.726 9.616c0.131-0.131 0.309-0.205 0.495-0.205s0.364 0.074 0.495 0.205l10.685 10.685v-8.21c0.003-0.184 0.078-0.358 0.209-0.487s0.307-0.201 0.491-0.201c0.184 0 0.36 0.072 0.491 0.201s0.206 0.304 0.209 0.487v9.9c-0 0.186-0.074 0.364-0.205 0.495s-0.309 0.205-0.495 0.205h-9.9c-0.184-0.003-0.358-0.078-0.487-0.209s-0.201-0.307-0.201-0.491c0-0.184 0.072-0.36 0.201-0.491s0.304-0.206 0.487-0.209h8.21l-10.684-10.685c-0.131-0.131-0.205-0.309-0.205-0.495s0.074-0.364 0.205-0.495z"></path>
</symbol>
<symbol id="icon-arrow-left" viewBox="0 0 16 32">
<path fill="#ff008c" style="fill: var(--color1, #ff008c)" d="M12.731 23.227l-1.415 1.413-7.705-7.703c-0.124-0.123-0.223-0.27-0.29-0.432s-0.102-0.335-0.102-0.51 0.035-0.348 0.102-0.51c0.067-0.162 0.166-0.308 0.29-0.432l7.705-7.707 1.413 1.413-7.232 7.233 7.233 7.233z"></path>
</symbol>
<symbol id="icon-arrow-right" viewBox="0 0 16 32">
<path fill="#ff008c" style="fill: var(--color1, #ff008c)" d="M3.269 8.773l1.415-1.413 7.705 7.703c0.124 0.123 0.223 0.27 0.29 0.432s0.102 0.335 0.102 0.51-0.035 0.349-0.102 0.51c-0.067 0.162-0.166 0.308-0.29 0.432l-7.705 7.707-1.413-1.413 7.232-7.233-7.233-7.233z"></path>
</symbol>
<symbol id="icon-arrow-up" viewBox="0 0 32 32">
<path fill="#ff008c" style="fill: var(--color1, #ff008c)" d="M22.596 22.274c-0.131 0.131-0.309 0.205-0.495 0.205s-0.364-0.074-0.495-0.205l-10.685-10.685v8.21c-0.003 0.184-0.078 0.358-0.209 0.487s-0.307 0.201-0.491 0.201c-0.184 0-0.36-0.072-0.491-0.201s-0.206-0.304-0.209-0.487v-9.899c0-0.186 0.074-0.364 0.205-0.495s0.309-0.205 0.495-0.205h9.9c0.184 0.003 0.358 0.078 0.487 0.209s0.201 0.307 0.201 0.491c0 0.184-0.072 0.36-0.201 0.491s-0.304 0.206-0.487 0.209h-8.21l10.685 10.685c0.131 0.131 0.205 0.309 0.205 0.495s-0.074 0.364-0.205 0.495z"></path>
</symbol>
<symbol id="icon-burger" viewBox="0 0 49 32">
<path fill="#fff" style="fill: var(--color2, #fff)" d="M0 0h49.455v2.909h-49.455v-2.909z"></path>
<path fill="#fff" style="fill: var(--color2, #fff)" d="M0 14.545h49.455v2.909h-49.455v-2.909z"></path>
<path fill="#fff" style="fill: var(--color2, #fff)" d="M0 29.091h49.455v2.909h-49.455v-2.909z"></path>
</symbol>
<symbol id="icon-cross" viewBox="0 0 32 32">
<path d="M7.293 7.293c0.188-0.187 0.442-0.292 0.707-0.292s0.519 0.105 0.707 0.292l16 16c0.098 0.092 0.177 0.202 0.232 0.325s0.084 0.255 0.086 0.389c0.002 0.134-0.022 0.268-0.073 0.392s-0.125 0.238-0.22 0.333c-0.095 0.095-0.208 0.17-0.333 0.22s-0.258 0.075-0.392 0.073c-0.134-0.002-0.267-0.032-0.389-0.086s-0.233-0.134-0.325-0.232l-16-16c-0.187-0.188-0.292-0.442-0.292-0.707s0.105-0.519 0.292-0.707z"></path>
<path d="M24.707 7.293c0.187 0.188 0.292 0.442 0.292 0.707s-0.105 0.519-0.292 0.707l-16 16c-0.19 0.177-0.44 0.273-0.699 0.268s-0.506-0.11-0.689-0.293c-0.183-0.183-0.288-0.43-0.293-0.689s0.092-0.51 0.268-0.699l16-16c0.188-0.187 0.442-0.292 0.707-0.292s0.519 0.105 0.707 0.292z"></path>
</symbol>
<symbol id="icon-playstore" viewBox="0 0 28 32">
<path fill="#ea4335" style="fill: var(--color3, #ea4335)" d="M13.073 15.282l-12.954 14.059c0.001 0.003 0.001 0.006 0.002 0.009 0.398 1.527 1.76 2.65 3.379 2.65 0.647 0 1.254-0.179 1.775-0.493l0.041-0.025 14.58-8.603-6.824-7.597z"></path>
<path fill="#fbbc04" style="fill: var(--color4, #fbbc04)" d="M26.177 12.888l-0.012-0.009-6.295-3.731-7.092 6.453 7.117 7.276 6.261-3.694c1.097-0.607 1.843-1.79 1.843-3.154 0-1.356-0.735-2.533-1.823-3.141z"></path>
<path fill="#4285f4" style="fill: var(--color5, #4285f4)" d="M0.119 2.658c-0.078 0.294-0.119 0.602-0.119 0.921v24.843c0 0.318 0.041 0.627 0.12 0.919l13.398-13.699-13.399-12.984z"></path>
<path fill="#34a853" style="fill: var(--color6, #34a853)" d="M13.169 16l6.704-6.854-14.563-8.634c-0.529-0.325-1.147-0.511-1.808-0.511-1.618 0-2.983 1.126-3.381 2.654 0 0.001-0.001 0.002-0.001 0.004l13.050 13.342z"></path>
</symbol>
</defs>
</svg>
